<svg xmlns="http://www.w3.org/2000/svg" xmlns:xlink="http://www.w3.org/1999/xlink" width="24" height="24" viewBox="0 0 24 24">
    <defs>
        <path id="a" d="M9.853 12.851s-.339.638-.65 1.029l-.698.875 1.12.022c.46.01.92-.066 1.36-.227.434-.158 1.011-.445 1.011-.445s1.48.406 2.504.406c3.565 0 6.5-2.321 6.5-5.256C21 6.321 18.065 4 14.5 4S8 6.32 8 9.255c0 2.633 1.853 3.596 1.853 3.596z"/>
        <mask id="c" width="15" height="12.778" x="-1" y="-1">
            <path fill="#fff" d="M7 3h15v12.778H7z"/>
            <use xlink:href="#a"/>
        </mask>
        <path id="b" d="M4.71 17.17s-.312.589-.6.95l-.643.808 1.032.02c.425.009.85-.061 1.256-.21.401-.145.934-.41.934-.41s1.366.374 2.311.374c3.29 0 6-2.142 6-4.85C15 11.141 12.29 9 9 9s-6 2.142-6 4.851c0 2.43 1.71 3.32 1.71 3.32z"/>
        <mask id="d" width="14" height="11.949" x="-1" y="-1">
            <path fill="#fff" d="M2 8h14v11.949H2z"/>
            <use xlink:href="#b"/>
        </mask>
    </defs>
    <g fill="none" fill-rule="evenodd">
        <path fill="none" d="M0 0h24v24H0z"/>
        <g transform="matrix(-1 0 0 1 29 0)">
            <use fill="#FE626C" xlink:href="#a"/>
            <use stroke="#FFF" stroke-width="2" mask="url(#c)" xlink:href="#a"/>
        </g>
        <use fill="#FE626C" xlink:href="#b"/>
        <use stroke="#FFF" stroke-width="2" mask="url(#d)" xlink:href="#b"/>
    </g>
</svg>
