<svg xmlns="http://www.w3.org/2000/svg" viewBox="0 5 100 100"><path style="fill: #00C1F9" d="M48.811,86.539C25.841,86.539,7.155,70.147,7.155,50s18.686-36.539,41.655-36.539S90.467,29.853,90.467,50  c0,7.323-2.456,14.365-7.11,20.412c0.445,6.156,6.506,11.273,6.568,11.325l2.92,2.432l-3.791,0.22  c-0.767,0.044-1.514,0.064-2.242,0.064c-0.001,0-0.001,0-0.002,0c-8.184,0-13.985-2.57-15.92-3.562  C67.087,82.542,57.03,86.539,48.811,86.539z M48.811,16.461c-21.315,0-38.655,15.045-38.655,33.539s17.34,33.539,38.655,33.539  c8.18,0,18.532-4.394,21.534-5.686c0.758-0.326,2.074,0.446,2.074,0.446c1.105,0.759,6.421,2.863,12.98,3.126  c-2.188-2.531-6.25-10.278-5.065-11.46c2.483-3.443,7.133-13.097,7.133-19.965C87.467,31.507,70.126,16.461,48.811,16.461z   M61.26,32.28l-21.217,5.667l0.288,0.982c0.08,0.275,8.025,27.501,8.611,32.209l0.142,1.139l21.317-5.693l-0.158-0.902  C70.218,65.54,67.801,53.779,61.26,32.28z M68.104,65.126l-17.366,4.639c-1.201-6.189-6.839-25.724-8.202-30.414l17.428-4.654  C64.968,49.658,67.466,61.806,68.104,65.126z M62.237,47.785c-0.923-3.32-2.022-7.016-3.31-10.942l-0.147-0.45l-14.408,3.848  l0.142,0.49c0.032,0.111,1.623,5.632,3.29,11.647c-0.108,0.59-0.095,1.187,0.062,1.772c0.161,0.604,0.462,1.14,0.867,1.607  c1.37,5.028,2.601,9.763,2.831,11.355l0.082,0.557l14.448-3.859l-0.085-0.456c-0.013-0.069-0.817-4.29-2.509-10.859  c0.314-0.84,0.39-1.713,0.162-2.563C63.434,49.078,62.932,48.358,62.237,47.785z M58.125,37.603  c1.086,3.336,2.033,6.496,2.853,9.395c-1.754-0.802-4.144-0.962-6.64-0.296c-2.764,0.738-4.909,2.29-5.938,4.08  c-1.246-4.473-2.385-8.453-2.783-9.837L58.125,37.603z M61.729,50.447c0.494,1.846-1.822,4.136-5.055,5  c-3.234,0.864-6.383,0.034-6.876-1.813c-0.493-1.847,1.823-4.136,5.057-5S61.236,48.601,61.729,50.447z M52.459,66.416  c-0.344-1.809-1.299-5.52-2.397-9.584c1.784,1.014,4.391,1.278,7.128,0.548c2.499-0.667,4.492-2.001,5.611-3.573  c1.202,4.749,1.901,8.108,2.135,9.276L52.459,66.416z M59.449,31.794l-1.1-1.755l-22.396,5.981l0.335,1.007  c0.082,0.248,8.24,24.859,10.338,34.308l0.165,0.742l2.114,0.248c0,0-3.907-15.756-10.386-34.919L59.449,31.794z M57.561,29.646  l-1.121-1.772L33.06,34.12l5.861,19.332l-6.213-19.668l22.77-6.125l-1.592-1.602L30.17,32.39l12.217,38.682l4.277,1.04  L35.573,35.519L57.561,29.646z"/></svg>