<svg xmlns="http://www.w3.org/2000/svg" viewBox="0 0 459.89 213.82"><defs><style>.cls-1{fill:#fff;}.cls-2{fill:#ea6068;}</style></defs><title>자산 4</title><g id="레이어_2" data-name="레이어 2"><g id="레이어_2-2" data-name="레이어 2"><path class="cls-2" d="M259,16.54A43.64,43.64,0,0,0,224.22.07s-22.13-2.35-38.49,19.78a47.36,47.36,0,0,0-7.38,36l46.41,36.57L268.92,56.1S275.34,35.57,259,16.54ZM181,55.78c10.91-9.73,21.81,0,21.81,0l18.28,32.08Zm42.45,32.08L204.87,55.57c9.2-9.3,18.61.53,18.61.53Zm1.92-32.18c10.8-9.73,18.18,0,18.18,0L225.4,87.86Zm2,32.18,18.28-32.4c14.11-10.16,21.06,0,21.06,0Z"/></g></g></svg>