<svg xmlns="http://www.w3.org/2000/svg" viewBox="0 0 459.89 213.82"><defs><style>.cls-1{fill:#fff;}.cls-2{fill:#ea6068;}</style></defs><title>자산 4</title><g id="레이어_2" data-name="레이어 2"><g id="레이어_2-2" data-name="레이어 2"><polygon class="cls-1" points="0 116.73 12.51 124.96 12.51 189.55 0 196.28 0 116.73"/><polygon class="cls-1" points="59.99 118.01 59.99 132.34 30.05 149.88 30.05 181.1 59.99 198.85 59.99 213.82 17.43 188.9 17.43 142.39 59.99 118.01"/><polygon class="cls-1" points="76.56 139.37 89.28 145.92 89.28 179.92 118.15 196.28 147.13 179.71 147.13 145.92 159.75 139.37 159.75 187.41 118.15 211.15 76.56 187.19 76.56 139.37"/><path class="cls-2" d="M223.8,105.23l-41.49,24v9l35.5,20v46.09l47.48-27.69V129.19Zm-23.42,28.44L223.8,120.1l24.27,13.69L223.8,147.47ZM253.21,169l-22.88,13.58V158.7l22.88-13.26Z"/><polygon class="cls-1" points="324.41 121.22 340.45 130.41 311.69 147.1 323.67 154.69 366.12 130.2 324.63 106.46 282.07 131.16 282.07 179.49 323.02 203.02 364.83 178.75 352.86 171.05 322.92 187.19 295.06 172.28 294.8 138.22 324.41 121.22"/><path class="cls-1" d="M418.3,107.75l-41.38,24v7.67l35.29,20.24v39.13l6.63,3.53,5.77-3V159.71l22.56-12.94v39.13l12.72-7.59V131.81Zm0,40.74-22.35-13L418.3,122.5l23.2,13Z"/><path class="cls-2" d="M259,16.54A43.64,43.64,0,0,0,224.22.07s-22.13-2.35-38.49,19.78a47.36,47.36,0,0,0-7.38,36l46.41,36.57L268.92,56.1S275.34,35.57,259,16.54ZM181,55.78c10.91-9.73,21.81,0,21.81,0l18.28,32.08Zm42.45,32.08L204.87,55.57c9.2-9.3,18.61.53,18.61.53Zm1.92-32.18c10.8-9.73,18.18,0,18.18,0L225.4,87.86Zm2,32.18,18.28-32.4c14.11-10.16,21.06,0,21.06,0Z"/></g></g></svg>