<svg xmlns="http://www.w3.org/2000/svg" viewBox="0 5 60 60"><g><path style="fill: #D9465A" d="M57.7,31c-1.6-0.9-3.3-1.5-5.3-1.4c1-0.7,2-1.4,3-2.1c1.7-1.2,2.7-2.9,3.1-4.9c0.8-4.2-0.1-8-2.5-11.5   c-0.9-1.4-2.1-2.5-3.4-3.6c0,0.2,0,0.2,0.1,0.3c0.3,1.2,0.6,2.4,0.8,3.5c0.3,2.2,0.4,4.4-0.2,6.6c-0.6,2.3-1.9,4-4.2,4.8   c-1.5,0.5-3,0.6-4.5,0.4c-0.1,0-0.2-0.2-0.3-0.3c-0.2-0.6-0.6-1-1.1-1.2c-1.1-0.4-2.3-0.7-3.5-0.7c-0.9,0-1.8,0-2.7-0.2   c-2.7-0.6-5.4-0.5-8.1-0.3c-0.9,0.1-1.8,0.2-2.7,0.2c-0.8,0-1.6,0-2.3,0.1c-0.7,0.2-1.4,0.3-2.2,0.5c-0.8,0.2-1.4,0.7-1.7,1.5   c0,0.1-0.2,0.2-0.3,0.2c-0.6,0-1.2,0.1-1.8,0.1c-1.4-0.1-2.8-0.3-4-1.1c-1.8-1.1-2.6-2.9-3-4.8c-0.5-2.6-0.3-5.2,0.3-7.7   c0.1-0.7,0.3-1.3,0.5-2.1c-0.5,0.5-1,0.8-1.4,1.3c-3.8,3.8-5.5,8.3-4.7,13.6c0.3,2,1.2,3.8,2.9,5c0.8,0.6,1.7,1.2,2.5,1.8   c0.2,0.1,0.4,0.3,0.6,0.4c-1.3,0-2.5,0.2-3.7,0.7C6.2,30.9,4.7,32,3,32.3c0.4,0.3,0.9,0.5,1.3,0.8c0.4,0.3,0.7,0.6,1.1,1   c1.1,1.1,2.5,1.5,4,1.9c1.3,0.3,2.5,0,3.7-0.5c0.4-0.2,0.9-0.4,1.3-0.5c0.8-0.2,1.9,0.3,2.2,0.9c0.5,0.8,1,1.7,1.6,2.4   c0.8,1.1,1.7,2.1,2.6,3.2c0.6,0.8,0.9,1.7,0.9,2.8c0,1,0,2.1-0.1,3.1c0,0.3-0.1,0.6-0.2,0.9c-0.5,1.7-0.4,3.3,0.4,4.8   c0.8,1.4,2,2.3,3.7,2.3c0.5,0,0.8,0.1,1.1,0.5c0.3,0.4,0.8,0.6,1.3,0.7c0.4,0,0.8,0,1.2,0c1.2-0.1,2.3-0.2,3.5-0.2   c0.9,0,1.7,0.2,2.6,0.3c0.9,0.1,1.8,0,2.4-0.9c0.2-0.2,0.4-0.3,0.7-0.3c1.2,0.1,2.2-0.3,3-1.1c1.7-1.7,2-3.7,1.4-5.9   c-0.1-0.2-0.2-0.4-0.2-0.6c0-1.1,0-2.2-0.1-3.4c-0.1-1.2,0.4-2.2,1-3.1c0.7-0.9,1.5-1.8,2.2-2.7c0.8-0.9,1.5-1.8,2-2.9   c0-0.1,0.1-0.2,0.2-0.2c0.5-0.4,1.2-0.6,1.8-0.4c0.5,0.1,1,0.3,1.5,0.5c0.7,0.3,1.4,0.6,2.2,0.6c2.1-0.2,4-0.8,5.6-2.4   c0.6-0.6,1.2-1.2,2-1.4C59.8,32.1,58.8,31.6,57.7,31z M18.8,25c-0.3,0.3-0.6,0.5-1,0.4c-0.8-0.1-1.6-0.1-2.4-0.3   c-1.9-0.4-3.4-1.6-4.6-3.1c-0.2-0.3-0.4-0.6-0.7-0.9c0.8,1.8,1.9,3.3,3.7,4.3c-0.1,0-0.2,0-0.2,0c-1.8-0.6-3.5-1.5-4.9-2.9   C7.2,21,6.6,19.1,6.8,17c0.2-2.6,1.4-4.8,3.1-6.7c0,0,0,0,0.1,0c-0.1,1-0.2,2-0.3,3c-0.1,2.1,0,4.2,0.9,6.2   c1.1,2.7,3.3,4.2,6.1,4.5c0.9,0.1,1.8,0.1,2.7,0.1c-2.5,0.6-4.8,0.4-6.9-1.1C14.2,24.8,16.3,25.4,18.8,25z M21.9,33.8   c-0.1-0.8-0.1-1.6-0.2-2.3c0-0.3-0.1-0.6-0.2-0.9c0,0,0-0.1,0-0.1c0.6,0.5,1.1,1,1.7,1.4c-0.7,1-0.5,2.2,0.4,2.8   c0.1-0.3,0.3-0.6,0.5-1c0.1,0.4,0.2,0.7,0.3,1c0,0.3,0.2,0.4,0.5,0.3c0.4-0.1,0.7-0.1,1-0.4c0.1-0.2,0.2-0.2,0.4-0.1   c0.2,0.1,0.4,0.1,0.7,0.2c-0.6,0.7-1.4,1.2-2.3,1.3C23.1,36.2,22.1,35.3,21.9,33.8z M39.5,52.1c-1.5,2.5-3.6,2.2-5.2,1.5   c-1.4-0.7-3.1-0.7-4.6,0c-1.6,0.7-3.7,1-5.2-1.5c-2.7-4.5,1.3-7.9,3.4-7.9c0.7,0,1.4,0.1,1.9,0.4c1.4,0.6,2.9,0.6,4.3,0   c0.5-0.2,1.2-0.4,1.9-0.4C38.2,44.3,42.2,47.7,39.5,52.1z M42.2,33.7c-0.1,1.2-0.8,2.1-1.8,2.3c-0.9,0.2-1.7-0.1-2.4-0.6   c-0.3-0.2-0.5-0.4-0.8-0.7c0.3-0.1,0.6-0.2,0.8-0.3c0.1,0,0.2,0,0.3,0.1c0.2,0.1,0.3,0.2,0.4,0.3c0.6,0.3,0.9,0.2,1.1-0.5   c0.1-0.2,0.1-0.4,0.2-0.7c0.2,0.4,0.3,0.7,0.4,1c0.8-0.2,1.1-2.2,0.3-2.8c0.6-0.5,1.1-1,1.7-1.5C42.4,31.6,42.3,32.7,42.2,33.7z    M50.1,25.7c-0.1,0-0.2,0-0.3,0.1c1.8-1,3-2.4,3.9-4.1c0,0,0,0-0.1-0.1c-0.3,0.4-0.6,0.7-0.9,1.1c-1.4,1.6-3.2,2.5-5.3,2.7   c-0.5,0-0.9,0.1-1.4,0.1c-0.1,0-0.3,0-0.4-0.1c-0.4-0.4-0.8-0.8-1.2-1.2c0,0,0.1-0.1,0.1-0.1c0.3,0,0.5,0,0.8,0   c1.4,0,2.7-0.1,4-0.6c2.4-0.9,3.8-2.7,4.5-5.1c0.7-2.2,0.6-4.5,0.4-6.8c-0.1-0.4-0.1-0.9-0.1-1.4c0.4,0.5,0.7,0.9,1.1,1.4   c0.9,1.3,1.6,2.6,2,4.2c0.8,3.1-0.3,5.9-2.8,7.8C53.2,24.6,51.7,25.2,50.1,25.7z"/><path d="M26.6,48.3c-0.3,0.1-0.8,0.4-0.7,0.7c0,0.4,0.6,0.7,0.9,0.7c0.5,0.1,1.1-0.5,1.7-0.2c0.2,0.1,0.4,0.5,0.7,0.9   C29.3,48.7,28,47.7,26.6,48.3z"/><path d="M37.6,48.3c-1.4-0.7-2.8,0.3-2.7,2c0.4-0.7,0.8-1.1,1.7-0.7c0.3,0.1,0.7,0,1-0.1c0.2-0.1,0.5-0.4,0.5-0.6   C38.1,48.7,37.9,48.4,37.6,48.3z"/></g></svg>
