<svg xmlns="http://www.w3.org/2000/svg" viewBox="0 0 459.89 213.82"><defs><style>.cls-1{fill:#fff;}.cls-2{fill:#ea6068;}</style></defs><title>자산 4</title><g id="레이어_2" data-name="레이어 2"><g id="레이어_2-2" data-name="레이어 2"><polygon class="cls-1" points="0 116.73 12.51 124.96 12.51 189.55 0 196.28 0 116.73"/><polygon class="cls-1" points="59.99 118.01 59.99 132.34 30.05 149.88 30.05 181.1 59.99 198.85 59.99 213.82 17.43 188.9 17.43 142.39 59.99 118.01"/><polygon class="cls-1" points="76.56 139.37 89.28 145.92 89.28 179.92 118.15 196.28 147.13 179.71 147.13 145.92 159.75 139.37 159.75 187.41 118.15 211.15 76.56 187.19 76.56 139.37"/><path class="cls-2" d="M223.8,105.23l-41.49,24v9l35.5,20v46.09l47.48-27.69V129.19Zm-23.42,28.44L223.8,120.1l24.27,13.69L223.8,147.47ZM253.21,169l-22.88,13.58V158.7l22.88-13.26Z"/><polygon class="cls-1" points="0 116.73 12.51 124.96 12.51 189.55 0 196.28 0 116.73"/><polygon class="cls-1" points="59.99 118.01 59.99 132.34 30.05 149.88 30.05 181.1 59.99 198.85 59.99 213.82 17.43 188.9 17.43 142.39 59.99 118.01"/><polygon class="cls-1" points="76.56 139.37 89.28 145.92 89.28 179.92 118.15 196.28 147.13 179.71 147.13 145.92 159.75 139.37 159.75 187.41 118.15 211.15 76.56 187.19 76.56 139.37"/><path class="cls-2" d="M223.8,105.23l-41.49,24v9l35.5,20v46.09l47.48-27.69V129.19Zm-23.42,28.44L223.8,120.1l24.27,13.69L223.8,147.47ZM253.21,169l-22.88,13.58V158.7l22.88-13.26Z"/><path class="cls-1" d="M418.3,107.75l-41.38,24v7.67l35.29,20.24v39.13l6.63,3.53,5.77-3V159.71l22.56-12.94v39.13l12.72-7.59V131.81Zm0,40.74-22.35-13L418.3,122.5l23.2,13Z"/></g></g></svg>