<svg xmlns="http://www.w3.org/2000/svg" viewBox="10 10 80 80"><g style="fill: #7ED221">
<path d="M54.004,42.827c-1.501-0.684-3.238-1.046-5.023-1.046c-0.942,0-1.869,0.099-2.755,0.294   c-0.251,0.057-0.411,0.307-0.357,0.561c0.049,0.216,0.237,0.366,0.459,0.366l0.102-0.011c0.816-0.18,1.675-0.271,2.552-0.271   c1.651,0,3.255,0.332,4.631,0.958c0.061,0.029,0.13,0.045,0.199,0.045c0.186,0,0.354-0.109,0.427-0.276   c0.052-0.114,0.057-0.242,0.012-0.359C54.205,42.97,54.117,42.877,54.004,42.827z"/><path d="M42.525,44.908c-0.609,0-1.105,0.496-1.105,1.105s0.496,1.105,1.105,1.105s1.104-0.496,1.104-1.105   S43.135,44.908,42.525,44.908z M42.525,45.847c0.091,0,0.165,0.075,0.165,0.167c0.001,0.186-0.332,0.182-0.333,0   C42.357,45.921,42.433,45.847,42.525,45.847z"/><path d="M60.984,47.168c-0.709,0-1.285,0.576-1.285,1.284c0,0.229,0.069,0.442,0.188,0.62c-0.176-0.204-0.284-0.476-0.287-0.782   c-0.181-4.341-4.845-7.741-10.619-7.741c-1.196,0-2.372,0.149-3.498,0.445c-0.243-0.539-0.745-1.413-2.131-2.039   c-0.173-0.076-0.379-0.041-0.514,0.088c-0.996,0.943-1.168,2.947-1.197,3.717c-1.094,0.789-1.97,1.77-2.546,2.85h-1.191   c-0.159,0-0.285,0.085-0.338,0.229c-0.03,0.082-0.03,0.166-0.03,0.249v4.917c0,0.081,0,0.182,0.077,0.27   c0.092,0.104,0.217,0.104,0.291,0.104h1.184c0.586,1.211,1.54,2.261,2.838,3.125v2.004c0,0.233,0.142,0.578,0.446,0.578h3.696   c0.271,0,0.527-0.325,0.527-0.578v-0.186c1.584,0.284,3.179,0.282,4.769-0.004v0.19c0,0.242,0.281,0.578,0.558,0.578h3.696   c0.285,0,0.415-0.299,0.415-0.578v-2.023c1.782-1.185,2.967-2.78,3.383-4.542c0.365,0.292,0.826,0.457,1.302,0.457   c0.964,0,1.748-0.782,1.748-1.742C62.465,47.836,61.801,47.168,60.984,47.168z M60.82,48.635c-0.101,0-0.182-0.082-0.182-0.183   c0-0.19,0.155-0.345,0.346-0.345c0.303,0,0.549,0.247,0.549,0.549c0,0.237-0.104,0.451-0.268,0.598   c0.016-0.047,0.024-0.098,0.024-0.151C61.29,48.846,61.079,48.635,60.82,48.635z M55.338,53.834   c-0.152,0.097-0.244,0.245-0.244,0.396v1.917h-2.792l0.001-0.428c0.002-0.069,0.008-0.23-0.134-0.341   c-0.087-0.069-0.177-0.103-0.274-0.103l-0.099,0.011c-1.828,0.411-3.809,0.411-5.637,0.007l-0.099-0.012   c-0.121,0-0.205,0.056-0.261,0.102c-0.145,0.113-0.144,0.274-0.143,0.368v0.397h-2.794v-1.897c0-0.155-0.089-0.307-0.23-0.396   c-1.257-0.8-2.257-1.9-2.817-3.098c-0.068-0.145-0.222-0.314-0.432-0.314h-0.91v-3.89h0.91c0.186,0,0.35-0.103,0.427-0.268   c0.507-1.092,1.393-2.091,2.562-2.889c0.128-0.087,0.201-0.228,0.201-0.39c0.002-0.589,0.135-2.208,0.706-3.037   c0.981,0.534,1.251,1.177,1.452,1.659l0.048,0.112c0.073,0.171,0.241,0.282,0.43,0.282c0.031,0,0.063-0.003,0.067-0.006L45.359,42   c1.149-0.34,2.368-0.512,3.621-0.512c5.334,0,9.674,3.165,9.674,7.055C58.654,50.554,57.445,52.483,55.338,53.834z"/><path d="M62.746,17.139H37.254c-2.209,0-4,1.791-4,4v57.723c0,2.209,1.791,4,4,4h25.492c2.209,0,4-1.791,4-4V21.139   C66.746,18.93,64.955,17.139,62.746,17.139z M44.611,18.421h10.383c0.277,0,0.5,0.224,0.5,0.5s-0.223,0.5-0.5,0.5H44.611   c-0.275,0-0.5-0.224-0.5-0.5S44.336,18.421,44.611,18.421z M41.373,18.315c0.354,0,0.639,0.287,0.639,0.64   c0,0.354-0.285,0.64-0.639,0.64s-0.641-0.286-0.641-0.64C40.732,18.603,41.02,18.315,41.373,18.315z M54.994,79.689H44.611   c-0.551,0-1-0.447-1-1c0-0.552,0.449-1,1-1h10.383c0.553,0,1,0.448,1,1C55.994,79.242,55.547,79.689,54.994,79.689z M64.279,74.849   H35.719V20.825h28.561V74.849z"/></g></svg>