<svg xmlns:x="http://ns.adobe.com/Extensibility/1.0/" xmlns:i="http://ns.adobe.com/AdobeIllustrator/10.0/" xmlns:graph="http://ns.adobe.com/Graphs/1.0/" xmlns="http://www.w3.org/2000/svg" xmlns:xlink="http://www.w3.org/1999/xlink" viewBox="-949 940 100 125" xml:space="preserve"><switch><g style="fill:#FE626C"><path d="M-852.2,971.6c-0.6-0.8-1.5-1.2-2.5-1.2h-68.2l-2.3-10.5c-0.3-1.5-1.6-2.5-3.1-2.5h-14.9c-1.8,0-3.2,1.4-3.2,3.2     s1.4,3.2,3.2,3.2h12.4l13,59.4c0.3,1.5,1.6,2.5,3.1,2.5h50.5c1.8,0,3.2-1.4,3.2-3.2s-1.4-3.2-3.2-3.2h-47.9l-1.6-7.3h51.1     c1.5,0,2.8-1,3.1-2.5l8-35.2C-851.4,973.4-851.6,972.4-852.2,971.6z"/><circle cx="-870.8" cy="1037" r="7.6"/><circle cx="-907.9" cy="1037" r="7.6"/></g></switch></svg>